<?xml version="1.0" encoding="UTF-8"?>
<svg version="1.1" xmlns="http://www.w3.org/2000/svg" width="256" height="256">
<path d="M0 0 C1.53825377 0.00028249 3.07650767 0.00012293 4.61476135 -0.0004425 C8.7670005 -0.00072806 12.91921045 0.00512946 17.07144284 0.01213145 C21.41961088 0.01840537 25.76777967 0.01897198 30.11595154 0.02015686 C38.33924584 0.0232583 46.56252676 0.03145563 54.78581518 0.04150635 C64.15222837 0.05270442 73.51864221 0.05818723 82.88506043 0.06320179 C102.1427024 0.07363929 121.40032603 0.09196995 140.65795898 0.11352539 C140.65795898 12.32352539 140.65795898 24.53352539 140.65795898 37.11352539 C136.35450439 37.12810791 132.0510498 37.14269043 127.6171875 37.15771484 C113.35199007 37.20819391 99.08689964 37.2746651 84.82180882 37.3492403 C76.17825611 37.39404113 67.53474317 37.43349117 58.89111328 37.45996094 C51.34974652 37.48306919 43.80850726 37.5166079 36.2672419 37.56222695 C32.28106887 37.58598787 28.29502077 37.60482797 24.30877876 37.6111393 C-6.08494077 36.19181576 -6.08494077 36.19181576 -33.35766602 46.76196289 C-48.09743811 61.9352577 -42.89177673 86.65268982 -43.34204102 105.11352539 C0.87795898 105.11352539 45.09795898 105.11352539 90.65795898 105.11352539 C90.65795898 90.92352539 90.65795898 76.73352539 90.65795898 62.11352539 C107.15795898 62.11352539 123.65795898 62.11352539 140.65795898 62.11352539 C140.65795898 88.84352539 140.65795898 115.57352539 140.65795898 143.11352539 C61.12795898 143.11352539 -18.40204102 143.11352539 -100.34204102 143.11352539 C-100.34204102 46.7466234 -100.34204102 46.7466234 -83.67797852 29.41821289 C-82.52168945 28.27739258 -82.52168945 28.27739258 -81.34204102 27.11352539 C-80.65368164 26.41485352 -79.96532227 25.71618164 -79.25610352 24.99633789 C-58.19383031 4.87364565 -27.94329048 -0.0721906 0 0 Z " fill="#F89227" transform="translate(108.342041015625,56.886474609375)"/>
</svg>
